<svg height="512" viewBox="0 0 64 64" width="512" xmlns="http://www.w3.org/2000/svg"><g id="graduation_cap-world-globe-book-education" data-name="graduation cap-world-globe-book-education"><path d="m32 3-29 13 29 15 29-15z" fill="#4a80aa"/><path d="m60.41 57.59a1.955 1.955 0 0 1 .59 1.41 2.006 2.006 0 0 1 -2 2h-47a9 9 0 0 1 0-18h47a2.015 2.015 0 0 1 2 2 2.006 2.006 0 0 1 -2 2h-1v10h1a1.955 1.955 0 0 1 1.41.59z" fill="#7e543b"/><path d="m58 47v10h-44a5 5 0 1 1 0-10z" fill="#e9e9ea"/><circle cx="32" cy="26" fill="#5bcbfa" r="17"/><g fill="#6fc991"><path d="m47.49 19a16.973 16.973 0 0 1 -2.53 17.99l-3.96-.99-3 2h-4v-3l-4-2 1-6 3-2 5-2 3-3 4.19-3.35a14.942 14.942 0 0 1 1.3 2.35z"/><path d="m42.42 12.58-2.42 2.42-3 1-2 3-6-1-4-2-3.97-2.98a16.966 16.966 0 0 1 21.39-.44z"/><path d="m28 22 1 4-2 1-4 4v9.42a16.967 16.967 0 0 1 -8-14.42 16.793 16.793 0 0 1 .64-4.62l4.36.62 4-1z"/></g><path d="m51 51v4l-3-2-3 2v-4z" fill="#f6cc4f"/><path d="m7 24a3 3 0 0 1 3 3v3h-6v-3a3 3 0 0 1 3-3z" fill="#e28086"/><path d="m62 45a3.009 3.009 0 0 0 -3-3h-18.79a18.01 18.01 0 0 0 9.79-16 17.493 17.493 0 0 0 -.26-2.91l11.73-6.21a1 1 0 0 0 -.06-1.79l-29-13a.979.979 0 0 0 -.82 0l-29 13a1 1 0 0 0 -.06 1.79l3.47 1.84v4.42a4 4 0 0 0 -3 3.86v3a1 1 0 0 0 1 1h6a1 1 0 0 0 1-1v-3a4 4 0 0 0 -3-3.86v-3.36l6.26 3.31a17.493 17.493 0 0 0 -.26 2.91 18.01 18.01 0 0 0 9.79 16h-11.79a10 10 0 0 0 0 20h47a3 3 0 0 0 0-6v-8a3.009 3.009 0 0 0 3-3zm-30-3a15.958 15.958 0 0 1 -8-2.16v-8.43l3.59-3.59 1.86-.93a1 1 0 0 0 .52-1.13l-1-4a1 1 0 0 0 -.73-.73l-4-1a.975.975 0 0 0 -.48 0l-3.81.95-2.98-.42a16.021 16.021 0 0 1 4.13-6.24l3.3 2.48a.6.6 0 0 0 .15.09l4 2a1 1 0 0 0 .29.1l6 1a.86.86 0 0 0 .16.01.984.984 0 0 0 .83-.45l1.81-2.71 2.68-.89a1.058 1.058 0 0 0 .39-.24l1.77-1.77a15.611 15.611 0 0 1 2.34 2.53l-3.44 2.75c-.03.02-.06.05-.09.07l-2.85 2.86-4.81 1.92a.768.768 0 0 0 -.18.1l-3 2a1.007 1.007 0 0 0 -.44.67l-1 6a.993.993 0 0 0 .54 1.05l3.45 1.73v2.38a1 1 0 0 0 1 1h4a.967.967 0 0 0 .55-.17l2.64-1.75 1.86.46a15.906 15.906 0 0 1 -11.05 4.46zm-9.31-28.98a15.905 15.905 0 0 1 18.19-.32l-1.42 1.43-2.78.92a.962.962 0 0 0 -.51.4l-1.64 2.46-5.22-.87-3.78-1.89zm21.88 22.84-3.33-.83a.963.963 0 0 0 -.79.14l-2.75 1.83h-2.7v-2a.977.977 0 0 0 -.55-.89l-3.34-1.67.81-4.85 2.55-1.7 4.9-1.96a1.105 1.105 0 0 0 .34-.22l2.96-2.96 3.25-2.61a15.889 15.889 0 0 1 -1.35 17.72zm-35.57-8.86v2h-4v-2a2 2 0 0 1 4 0zm-3.72-10.93 26.72-11.97 26.72 11.97-9.42 5a17.985 17.985 0 0 0 -34.6 0zm17.01 14.22a1.033 1.033 0 0 0 -.29.71v7.47a15.968 15.968 0 0 1 -6-12.47 15.585 15.585 0 0 1 .4-3.5l3.46.49c.13-.01.25-.01.38-.02l3.76-.94 3.18.79.66 2.64-1.29.65c-.08.06-.17.12-.26.18zm-8.29 15.71a6 6 0 0 0 0 12h45a1 1 0 0 1 0 2h-47a8 8 0 0 1 0-16h47a1 1 0 0 1 0 2zm43 2v8h-43a4 4 0 0 1 0-8z"/><path d="m14 50v2h30v3a.984.984 0 0 0 .53.88.977.977 0 0 0 1.02-.05l2.45-1.63 2.45 1.63a1 1 0 0 0 1.55-.83v-3h3v-2zm36 3.13-1.45-.96a.975.975 0 0 0 -1.1 0l-1.45.96v-1.13h4z"/></g></svg>