<svg id="Capa_1" enable-background="new 0 0 512 512" height="512" viewBox="0 0 512 512" width="512" xmlns="http://www.w3.org/2000/svg"><g><g><g><g><g><g><g><circle cx="256" cy="256" fill="#ffce00" r="256"/></g></g></g></g></g></g><path d="m512 256c0-22.598-2.928-44.513-8.426-65.385l-145.094-145.094-15.162 35.616-28.478-28.478-38.588 38.297-52.866-52.866 2.451 70.662-49.765-49.765-70.766 79.672 59.426 59.426-49.1 3.549-17.225-17.522-3.391-3.094-36.253 24.703 55.625 55.625-1.566 11.87 86.522 86.522-104.327 40.219 106.159 106.159c17.662 3.853 36.006 5.884 54.824 5.884 141.385 0 256-114.615 256-256z" fill="#ffa300"/><g><path d="m311.77 384.957h-111.54l26.637-230.769h58.267z" fill="#c38778"/></g><g><path d="m232.629 237.08-73.322-30.871-63.747 19.284-8.687-28.714 74.104-22.417 83.294 35.069z" fill="#c38778"/></g><g><path d="m134.653 128.954h30v63.429h-30z" fill="#c38778" transform="matrix(.891 -.454 .454 .891 -56.652 85.51)"/></g><g><path d="m215.169 213.928-34.644-84.85-50.621-21.311 11.64-27.65 62.063 26.128 39.336 96.343z" fill="#c38778"/></g><g><path d="m228.165 162.889-11.148-74.489-19.856-35.741 26.224-14.57 22.497 40.494 11.952 79.866z" fill="#c38778"/></g><g><path d="m279.371 237.08-11.64-27.649 83.292-35.069 74.104 22.417-8.687 28.714-63.747-19.284z" fill="#a65d4e"/></g><g><path d="m330.633 145.669h63.429v30h-63.429z" fill="#a65d4e" transform="matrix(.454 -.891 .891 .454 54.618 410.494)"/></g><g><path d="m296.831 213.928-27.773-11.34 39.335-96.343 62.063-26.128 11.641 27.65-50.622 21.311z" fill="#a65d4e"/></g><g><path d="m283.835 162.889-29.67-4.44 11.953-79.866 22.497-40.494 26.225 14.57-19.857 35.741z" fill="#c38778"/></g><g><path d="m416.983 399.957h-59.695l-78.874-41.236 13.901-26.586 72.342 37.822h52.326z" fill="#a65d4e"/></g><g><path d="m296.608 357.88h30v97.176h-30z" fill="#a65d4e" transform="matrix(.907 -.42 .42 .907 -141.95 168.557)"/></g><g><path d="m261.096 373.216h30v91.246h-30z" fill="#c38778" transform="matrix(.988 -.156 .156 .988 -61.782 48.038)"/></g><g><path d="m154.712 399.957h-59.695v-30h52.326l72.344-37.822 13.899 26.586z" fill="#c38778"/></g><g><path d="m151.804 391.468h97.176v30h-97.176z" fill="#c38778" transform="matrix(.42 -.907 .907 .42 -252.654 417.512)"/></g><g><path d="m190.281 403.839h91.246v30h-91.246z" fill="#c38778" transform="matrix(.156 -.988 .988 .156 -214.526 586.736)"/></g><path d="m285.135 154.202 9.848-65.802 19.857-35.741-26.225-14.57-22.497 40.494-10.118 67.605.099 242.085 12.275 77.967 29.635-4.666-12.063-76.617h25.824z" fill="#a65d4e"/><g><path d="m399.177 273.216-12.509-7.222c-16.356-9.443-21.961-30.358-12.517-46.715l7.222-12.509 12.509 7.222c16.356 9.443 21.96 30.358 12.517 46.715z" fill="#82b20b"/></g><g><path d="m356.344 260.165h-14.444c-18.887 0-34.197-15.311-34.197-34.197v-14.444h14.444c18.887 0 34.197 15.311 34.197 34.197z" fill="#82b20b"/></g><g><path d="m360.249 184.989h-14.444c-18.887 0-34.197-15.311-34.197-34.197v-14.444h14.444c18.887 0 34.197 15.311 34.197 34.197z" fill="#82b20b"/></g><g><path d="m267.846 125.466.748-14.424c.979-18.861 17.062-33.358 35.923-32.38l14.424.748-.748 14.424c-.979 18.861-17.062 33.358-35.923 32.38z" fill="#82b20b"/></g><g><path d="m466.335 183.41-6.359 12.969c-8.314 16.958-28.802 23.965-45.76 15.651l-12.969-6.359 6.359-12.969c8.314-16.958 28.802-23.965 45.76-15.651z" fill="#82b20b"/></g><g><path d="m358.48 45.521 6.405 12.946c8.375 16.928 1.441 37.441-15.487 45.816l-12.946 6.405-6.405-12.946c-8.375-16.928-1.441-37.441 15.487-45.816z" fill="#82b20b"/></g><g><path d="m422.819 113.704-6.359 12.969c-8.315 16.958-28.802 23.965-45.76 15.651l-12.969-6.359 6.359-12.969c8.314-16.958 28.802-23.965 45.76-15.651z" fill="#82b20b"/></g><g><path d="m112.823 273.216 12.509-7.222c16.356-9.443 21.96-30.358 12.517-46.715l-7.222-12.509-12.509 7.222c-16.356 9.443-21.96 30.358-12.517 46.715z" fill="#9ac90a"/></g><g><path d="m155.656 260.165h14.444c18.887 0 34.197-15.311 34.197-34.197v-14.444h-14.444c-18.887 0-34.197 15.311-34.197 34.197z" fill="#9ac90a"/></g><g><path d="m151.751 184.989h14.444c18.887 0 34.197-15.311 34.197-34.197v-14.444h-14.444c-18.887 0-34.197 15.311-34.197 34.197z" fill="#9ac90a"/></g><g><path d="m244.154 125.466-.748-14.424c-.979-18.861-17.062-33.358-35.923-32.38l-14.424.748.748 14.424c.979 18.861 17.062 33.358 35.923 32.38z" fill="#9ac90a"/></g><g><path d="m264.512 201.536.538-10.365c.703-13.553 12.26-23.97 25.813-23.267l10.365.538-.538 10.365c-.703 13.553-12.26 23.97-25.813 23.267z" fill="#82b20b"/></g><g><path d="m247.488 201.536-.538-10.365c-.703-13.553-12.26-23.97-25.813-23.267l-10.365.538.538 10.365c.703 13.553 12.26 23.97 25.813 23.267z" fill="#9ac90a"/></g><g><path d="m45.665 183.41 6.359 12.969c8.314 16.958 28.802 23.965 45.76 15.651l12.969-6.359-6.358-12.969c-8.314-16.958-28.802-23.965-45.76-15.651z" fill="#9ac90a"/></g><g><path d="m153.52 45.521-6.405 12.946c-8.375 16.928-1.441 37.441 15.487 45.816l12.946 6.405 6.405-12.946c8.375-16.928 1.441-37.441-15.487-45.816z" fill="#9ac90a"/></g><g><path d="m89.181 113.704 6.359 12.969c8.314 16.958 28.802 23.965 45.76 15.651l12.969-6.359-6.359-12.969c-8.314-16.958-28.802-23.965-45.76-15.651z" fill="#9ac90a"/></g></g></svg>