<svg id="Capa_1" enable-background="new 0 0 512 512" height="512" viewBox="0 0 512 512" width="512" xmlns="http://www.w3.org/2000/svg"><g><path d="m355.825 15h-199.65l-141.175 141.175v199.65l141.175 141.175h199.65l141.175-141.175v-199.65z" fill="#ffc178"/><g><path d="m355.826 15h-99.826v482h99.826l141.174-141.175v-199.65z" fill="#ff9d21"/></g><path d="m507.606 145.568-141.174-141.174c-2.813-2.814-6.628-4.394-10.606-4.394h-199.652c-3.978 0-7.793 1.58-10.606 4.394l-141.174 141.174c-2.814 2.813-4.394 6.628-4.394 10.607v199.65c0 3.979 1.58 7.794 4.394 10.606l141.174 141.175c2.813 2.813 6.628 4.394 10.606 4.394h199.651c3.978 0 7.793-1.58 10.606-4.394l141.174-141.175c2.813-2.812 4.394-6.628 4.394-10.606v-199.65c.001-3.979-1.579-7.794-4.393-10.607zm-68.086 18.178-91.265-91.265 12.839-31 109.426 109.426zm-115.173 257.254h-136.694l-96.653-96.652v-136.696l96.653-96.652h136.694l96.653 96.652v136.695zm-3.81-360h-129.074l-12.84-31h154.754zm-156.791 11.481-91.266 91.265-31-12.839 109.426-109.426zm-102.746 118.981v129.075l-31 12.839v-154.753zm11.48 156.792 91.265 91.265-12.839 31-109.425-109.426zm118.983 102.746h129.075l12.84 31h-154.755zm156.791-11.481 91.265-91.265 31 12.839-109.425 109.426zm102.746-118.981v-129.076l31-12.839v154.754z" fill="#ffe278"/><g><g><path d="m507.606 145.568-141.174-141.174c-2.813-2.814-6.628-4.394-10.606-4.394h-99.826v30h77.377l-12.84 31h-64.537v30h68.347l96.653 96.652v136.695l-96.653 96.653h-68.347v30h64.537l12.84 31h-77.377v30h99.826c3.978 0 7.793-1.58 10.606-4.394l141.174-141.175c2.813-2.812 4.394-6.628 4.394-10.606v-199.65c0-3.979-1.58-7.794-4.394-10.607zm-159.352-73.087 12.839-31 109.426 109.426-31 12.839zm12.84 398.038-12.839-31 91.265-91.265 31 12.839zm120.906-137.142-31-12.839v-129.076l31-12.839z" fill="#ffc178"/></g></g><g><g><path d="m256 111c-80.081 0-145 64.919-145 145s64.919 145 145 145l80-72.5v-137.386c0-44.201-35.799-80.051-80-80.114z" fill="#f9f9f9"/><path d="m256 111v290l80-72.5v-137.386c0-44.201-35.799-80.051-80-80.114z" fill="#e2dff4"/><path d="m256 111c40.041 0 72.5 32.459 72.5 72.5s-32.459 72.5-72.5 72.5-72.5 32.459-72.5 72.5 32.459 72.5 72.5 72.5c80.081 0 145-64.919 145-145s-64.919-145-145-145z" fill="#0a789b"/><path d="m401 256c0-80.081-64.919-145-145-145 40.041 0 72.5 32.459 72.5 72.5s-32.459 72.5-72.5 72.5v145c80.081 0 145-64.919 145-145z" fill="#08475e"/><circle cx="256" cy="183.5" fill="#0a789b" r="16"/><circle cx="256" cy="328.5" fill="#f9f9f9" r="15"/></g><g><path d="m272 183.5c0-8.837-7.163-16-16-16v32c8.837 0 16-7.163 16-16z" fill="#08475e"/><path d="m271 328.5c0-8.284-6.716-15-15-15v30c8.284 0 15-6.716 15-15z" fill="#e2dff4"/></g></g></g></svg>